ffmpeg started on 2025-06-19 at 19:13:49
Report written to "D:\Convert\FFMetrics\reports\ssim_report-6.txt"
Log level: 32
Command line:
ffmpeg -hide_banner -nostdin -i "G:\\\xc0\xed\xe8\xec\xe5\\[\xcf\xf0\xee\xf1\xec\xee\xf2\xf0\xe5\xed\xee]\\\xc0\xea\xe0\xe4\xe5\xec\xe8\xff \xc4\xf0\xe0\xea\xee\xed\xfc\xe8\xf5 \xcd\xe0\xe5\xe7\xe4\xed\xe8\xea\xee\xe2\\[AniDub]_Seikoku_no_Dragonar_[06]_[720p_x264_Aac]_[Simbad_and_Holly]_HEVC.mkv" -i "G:\\\xc0\xed\xe8\xec\xe5\\[\xcf\xf0\xee\xf1\xec\xee\xf2\xf0\xe5\xed\xee]\\\xc0\xea\xe0\xe4\xe5\xec\xe8\xff \xc4\xf0\xe0\xea\xee\xed\xfc\xe8\xf5 \xcd\xe0\xe5\xe7\xe4\xed\xe8\xea\xee\xe2\\[AniDub]_Seikoku_no_Dragonar_[06]_[720p_x264_Aac]_[Simbad_and_Holly].mp4" -lavfi "[0:v]settb=AVTB,setpts=PTS-STARTPTS,format=pix_fmts=yuv420p10,fps=24000/1001,scale=1280:720:flags=bicubic[main];[1:v]settb=AVTB,setpts=PTS-STARTPTS,format=pix_fmts=yuv420p,fps=24000/1001,scale=1280:720:flags=bicubic[ref];[main][ref]ssim=eof_action=endall:stats_file='D\\:/Convert/FFMetrics/logs/ssim_logfile-6.txt'" -f null -
Input #0, matroska,webm, from 'G:\Аниме\[Просмотрено]\Академия Драконьих Наездников\[AniDub]_Seikoku_no_Dragonar_[06]_[720p_x264_Aac]_[Simbad_and_Holly]_HEVC.mkv':
  Metadata:
    COMPATIBLE_BRANDS: isom
    MAJOR_BRAND     : isom
    MINOR_VERSION   : 1
    ENCODER         : Lavf61.7.100
  Duration: 00:25:32.52, start: -0.021000, bitrate: 1011 kb/s
  Stream #0:0: Video: hevc (Main 10), yuv420p10le(tv, bt709, progressive), 1280x720 [SAR 1:1 DAR 16:9], 23.98 fps, 23.98 tbr, 1k tbn (default)
      Metadata:
        HANDLER_NAME    : 264
        VENDOR_ID       : [0][0][0][0]
        ENCODER         : Lavc61.19.100 libx265
        BPS             : 814622
        DURATION        : 00:25:30.946708333
        NUMBER_OF_FRAMES: 36706
        NUMBER_OF_BYTES : 155892883
        _STATISTICS_WRITING_APP: mkvpropedit v66.0.0 ('Josie') 64-bit
        _STATISTICS_WRITING_DATE_UTC: 2025-06-19 14:56:34
        _STATISTICS_TAGS: BPS DURATION NUMBER_OF_FRAMES NUMBER_OF_BYTES
  Stream #0:1(rus): Audio: aac (LC), 48000 Hz, stereo, fltp (default)
      Metadata:
        HANDLER_NAME    : GPAC ISO Audio Handler
        VENDOR_ID       : [0][0][0][0]
        ENCODER         : Lavc61.19.100 aac
        BPS             : 193826
        DURATION        : 00:25:32.501000000
        NUMBER_OF_FRAMES: 71837
        NUMBER_OF_BYTES : 37129819
        _STATISTICS_WRITING_APP: mkvpropedit v66.0.0 ('Josie') 64-bit
        _STATISTICS_WRITING_DATE_UTC: 2025-06-19 14:56:34
        _STATISTICS_TAGS: BPS DURATION NUMBER_OF_FRAMES NUMBER_OF_BYTES
Input #1, mov,mp4,m4a,3gp,3g2,mj2, from 'G:\Аниме\[Просмотрено]\Академия Драконьих Наездников\[AniDub]_Seikoku_no_Dragonar_[06]_[720p_x264_Aac]_[Simbad_and_Holly].mp4':
  Metadata:
    major_brand     : isom
    minor_version   : 1
    compatible_brands: isom
    creation_time   : 2014-05-31T10:10:08.000000Z
  Duration: 00:25:32.50, start: 0.000000, bitrate: 2129 kb/s
  Stream #1:0[0x1](und): Video: h264 (High) (avc1 / 0x31637661), yuv420p(tv, bt709, progressive), 1280x720 [SAR 1:1 DAR 16:9], 1935 kb/s, 23.98 fps, 23.98 tbr, 24k tbn (default)
      Metadata:
        creation_time   : 2014-05-10T14:27:16.000000Z
        handler_name    : 264
        vendor_id       : [0][0][0][0]
  Stream #1:1[0x2](rus): Audio: aac (LC) (mp4a / 0x6134706D), 48000 Hz, stereo, fltp, 192 kb/s (default)
      Metadata:
        creation_time   : 2014-05-31T10:10:14.000000Z
        handler_name    : GPAC ISO Audio Handler
        vendor_id       : [0][0][0][0]
Stream mapping:
  Stream #0:0 (hevc) -> settb:default
  Stream #1:0 (h264) -> settb:default
  ssim:default -> Stream #0:0 (wrapped_avframe)
  Stream #0:1 -> #0:1 (aac (native) -> pcm_s16le (native))
Output #0, null, to 'pipe:':
  Metadata:
    COMPATIBLE_BRANDS: isom
    MAJOR_BRAND     : isom
    MINOR_VERSION   : 1
    encoder         : Lavf61.7.100
  Stream #0:0: Video: wrapped_avframe, yuv420p10le(tv, bt709, progressive), 1280x720 [SAR 1:1 DAR 16:9], q=2-31, 200 kb/s, 23.98 fps, 23.98 tbn
      Metadata:
        encoder         : Lavc61.19.100 wrapped_avframe
  Stream #0:1(rus): Audio: pcm_s16le, 48000 Hz, stereo, s16, 1536 kb/s (default)
      Metadata:
        HANDLER_NAME    : GPAC ISO Audio Handler
        VENDOR_ID       : [0][0][0][0]
        _STATISTICS_TAGS: BPS DURATION NUMBER_OF_FRAMES NUMBER_OF_BYTES
        BPS             : 193826
        DURATION        : 00:25:32.501000000
        NUMBER_OF_FRAMES: 71837
        NUMBER_OF_BYTES : 37129819
        _STATISTICS_WRITING_APP: mkvpropedit v66.0.0 ('Josie') 64-bit
        _STATISTICS_WRITING_DATE_UTC: 2025-06-19 14:56:34
        encoder         : Lavc61.19.100 pcm_s16le
frame=  366 fps=0.0 q=-0.0 size=N/A time=00:00:15.26 bitrate=N/A speed=29.6x    frame=  824 fps=803 q=-0.0 size=N/A time=00:00:34.36 bitrate=N/A speed=33.5x    frame= 1207 fps=785 q=-0.0 size=N/A time=00:00:50.34 bitrate=N/A speed=32.7x    frame= 1518 fps=735 q=-0.0 size=N/A time=00:01:03.31 bitrate=N/A speed=30.7x    frame= 1842 fps=715 q=-0.0 size=N/A time=00:01:16.82 bitrate=N/A speed=29.8x    frame= 2190 fps=709 q=-0.0 size=N/A time=00:01:31.34 bitrate=N/A speed=29.6x    frame= 2514 fps=695 q=-0.0 size=N/A time=00:01:44.85 bitrate=N/A speed=  29x    frame= 2798 fps=678 q=-0.0 size=N/A time=00:01:56.69 bitrate=N/A speed=28.3x    frame= 3081 fps=664 q=-0.0 size=N/A time=00:02:08.50 bitrate=N/A speed=27.7x    frame= 3583 fps=696 q=-0.0 size=N/A time=00:02:29.44 bitrate=N/A speed=  29x    frame= 4031 fps=710 q=-0.0 size=N/A time=00:02:48.12 bitrate=N/A speed=29.6x    frame= 4487 fps=725 q=-0.0 size=N/A time=00:03:07.14 bitrate=N/A speed=30.2x    frame= 4950 fps=739 q=-0.0 size=N/A time=00:03:26.45 bitrate=N/A speed=30.8x    frame= 5330 fps=739 q=-0.0 size=N/A time=00:03:42.30 bitrate=N/A speed=30.8x    frame= 5717 fps=739 q=-0.0 size=N/A time=00:03:58.44 bitrate=N/A speed=30.8x    frame= 6149 fps=745 q=-0.0 size=N/A time=00:04:16.46 bitrate=N/A speed=31.1x    frame= 6653 fps=759 q=-0.0 size=N/A time=00:04:37.48 bitrate=N/A speed=31.7x    frame= 7177 fps=774 q=-0.0 size=N/A time=00:04:59.34 bitrate=N/A speed=32.3x    frame= 7792 fps=795 q=-0.0 size=N/A time=00:05:24.99 bitrate=N/A speed=33.2x    frame= 8287 fps=804 q=-0.0 size=N/A time=00:05:45.63 bitrate=N/A speed=33.5x    frame= 8754 fps=809 q=-0.0 size=N/A time=00:06:05.11 bitrate=N/A speed=33.7x    frame= 9303 fps=820 q=-0.0 size=N/A time=00:06:28.01 bitrate=N/A speed=34.2x    frame= 9883 fps=833 q=-0.0 size=N/A time=00:06:52.20 bitrate=N/A speed=34.8x    frame=10385 fps=839 q=-0.0 size=N/A time=00:07:13.14 bitrate=N/A speed=  35x    frame=10917 fps=847 q=-0.0 size=N/A time=00:07:35.32 bitrate=N/A speed=35.3x    frame=11448 fps=854 q=-0.0 size=N/A time=00:07:57.47 bitrate=N/A speed=35.6x    frame=11988 fps=861 q=-0.0 size=N/A time=00:08:19.99 bitrate=N/A speed=35.9x    frame=12534 fps=868 q=-0.0 size=N/A time=00:08:42.77 bitrate=N/A speed=36.2x    frame=13083 fps=875 q=-0.0 size=N/A time=00:09:05.67 bitrate=N/A speed=36.5x    frame=13559 fps=876 q=-0.0 size=N/A time=00:09:25.52 bitrate=N/A speed=36.6x    frame=13789 fps=863 q=-0.0 size=N/A time=00:09:35.11 bitrate=N/A speed=  36x    frame=14237 fps=863 q=-0.0 size=N/A time=00:09:53.80 bitrate=N/A speed=  36x    frame=14569 fps=857 q=-0.0 size=N/A time=00:10:07.64 bitrate=N/A speed=35.7x    frame=14999 fps=855 q=-0.0 size=N/A time=00:10:25.58 bitrate=N/A speed=35.7x    frame=15433 fps=855 q=-0.0 size=N/A time=00:10:43.68 bitrate=N/A speed=35.7x    frame=15937 fps=859 q=-0.0 size=N/A time=00:11:04.70 bitrate=N/A speed=35.8x    frame=16349 fps=857 q=-0.0 size=N/A time=00:11:21.88 bitrate=N/A speed=35.8x    frame=16878 fps=861 q=-0.0 size=N/A time=00:11:43.95 bitrate=N/A speed=35.9x    frame=17406 fps=866 q=-0.0 size=N/A time=00:12:05.97 bitrate=N/A speed=36.1x    frame=17937 fps=870 q=-0.0 size=N/A time=00:12:28.12 bitrate=N/A speed=36.3x    frame=18299 fps=865 q=-0.0 size=N/A time=00:12:43.22 bitrate=N/A speed=36.1x    frame=18834 fps=870 q=-0.0 size=N/A time=00:13:05.53 bitrate=N/A speed=36.3x    frame=19367 fps=874 q=-0.0 size=N/A time=00:13:27.76 bitrate=N/A speed=36.4x    frame=19810 fps=873 q=-0.0 size=N/A time=00:13:46.24 bitrate=N/A speed=36.4x    frame=20365 fps=878 q=-0.0 size=N/A time=00:14:09.39 bitrate=N/A speed=36.6x    frame=20941 fps=883 q=-0.0 size=N/A time=00:14:33.41 bitrate=N/A speed=36.8x    frame=21372 fps=882 q=-0.0 size=N/A time=00:14:51.39 bitrate=N/A speed=36.8x    frame=21824 fps=882 q=-0.0 size=N/A time=00:15:10.24 bitrate=N/A speed=36.8x    frame=22153 fps=877 q=-0.0 size=N/A time=00:15:23.96 bitrate=N/A speed=36.6x    frame=22494 fps=873 q=-0.0 size=N/A time=00:15:38.18 bitrate=N/A speed=36.4x    frame=22895 fps=871 q=-0.0 size=N/A time=00:15:54.91 bitrate=N/A speed=36.3x    frame=23291 fps=869 q=-0.0 size=N/A time=00:16:11.42 bitrate=N/A speed=36.2x    frame=23753 fps=869 q=-0.0 size=N/A time=00:16:30.69 bitrate=N/A speed=36.2x    frame=24153 fps=868 q=-0.0 size=N/A time=00:16:47.38 bitrate=N/A speed=36.2x    frame=24558 fps=866 q=-0.0 size=N/A time=00:17:04.27 bitrate=N/A speed=36.1x    frame=25018 fps=866 q=-0.0 size=N/A time=00:17:23.45 bitrate=N/A speed=36.1x    frame=25337 fps=862 q=-0.0 size=N/A time=00:17:36.76 bitrate=N/A speed=  36x    frame=25786 fps=862 q=-0.0 size=N/A time=00:17:55.49 bitrate=N/A speed=  36x    frame=26304 fps=865 q=-0.0 size=N/A time=00:18:17.09 bitrate=N/A speed=36.1x    frame=26868 fps=868 q=-0.0 size=N/A time=00:18:40.61 bitrate=N/A speed=36.2x    frame=27318 fps=869 q=-0.0 size=N/A time=00:18:59.38 bitrate=N/A speed=36.2x    frame=27801 fps=870 q=-0.0 size=N/A time=00:19:19.53 bitrate=N/A speed=36.3x    frame=28350 fps=873 q=-0.0 size=N/A time=00:19:42.43 bitrate=N/A speed=36.4x    frame=28935 fps=877 q=-0.0 size=N/A time=00:20:06.83 bitrate=N/A speed=36.6x    frame=29463 fps=879 q=-0.0 size=N/A time=00:20:28.85 bitrate=N/A speed=36.7x    frame=29949 fps=880 q=-0.0 size=N/A time=00:20:49.12 bitrate=N/A speed=36.7x    frame=30383 fps=880 q=-0.0 size=N/A time=00:21:07.22 bitrate=N/A speed=36.7x    frame=30894 fps=881 q=-0.0 size=N/A time=00:21:28.53 bitrate=N/A speed=36.7x    frame=31475 fps=885 q=-0.0 size=N/A time=00:21:52.76 bitrate=N/A speed=36.9x    frame=32079 fps=889 q=-0.0 size=N/A time=00:22:17.96 bitrate=N/A speed=37.1x    frame=32590 fps=890 q=-0.0 size=N/A time=00:22:39.27 bitrate=N/A speed=37.1x    frame=33029 fps=890 q=-0.0 size=N/A time=00:22:57.58 bitrate=N/A speed=37.1x    frame=33482 fps=890 q=-0.0 size=N/A time=00:23:16.47 bitrate=N/A speed=37.1x    frame=33948 fps=890 q=-0.0 size=N/A time=00:23:35.91 bitrate=N/A speed=37.1x    frame=34329 fps=888 q=-0.0 size=N/A time=00:23:51.80 bitrate=N/A speed=  37x    frame=34683 fps=885 q=-0.0 size=N/A time=00:24:06.57 bitrate=N/A speed=36.9x    frame=35010 fps=882 q=-0.0 size=N/A time=00:24:20.20 bitrate=N/A speed=36.8x    frame=35318 fps=878 q=-0.0 size=N/A time=00:24:33.05 bitrate=N/A speed=36.6x    frame=35641 fps=875 q=-0.0 size=N/A time=00:24:46.52 bitrate=N/A speed=36.5x    frame=35987 fps=872 q=-0.0 size=N/A time=00:25:00.95 bitrate=N/A speed=36.4x    frame=36367 fps=871 q=-0.0 size=N/A time=00:25:16.80 bitrate=N/A speed=36.3x    [Parsed_ssim_10 @ 000002304606c240] SSIM Y:0.992330 (21.152100) U:0.991967 (20.951309) V:0.992286 (21.127256) All:0.992262 (21.113866)
[out#0/null @ 0000023041a1b800] video:15772KiB audio:287348KiB subtitle:0KiB other streams:0KiB global headers:0KiB muxing overhead: unknown
frame=36706 fps=872 q=-0.0 Lsize=N/A time=00:25:30.94 bitrate=N/A speed=36.4x    
